<?xml version="1.0" encoding="UTF-8"?>
<svg xmlns="http://www.w3.org/2000/svg" xmlns:xlink="http://www.w3.org/1999/xlink" viewBox="0 0 24 24" width="24px" height="24px">
<g id="surface519404">
<path style=" stroke:none;fill-rule:nonzero;fill:rgb(96.862745%,43.137255%,6.666667%);fill-opacity:1;" d="M 19 3 L 14.816406 3 C 14.402344 1.835938 13.304688 1 12 1 C 10.695312 1 9.597656 1.835938 9.183594 3 L 5 3 C 3.894531 3 3 3.894531 3 5 L 3 19 C 3 20.105469 3.894531 21 5 21 L 19 21 C 20.105469 21 21 20.105469 21 19 L 21 5 C 21 3.894531 20.105469 3 19 3 Z M 7 9 L 7 7 L 17 7 L 17 9 Z M 15 11 L 15 13 L 7 13 L 7 11 Z M 7 15 L 17 15 L 17 17 L 7 17 Z M 12 3 C 12.550781 3 13 3.449219 13 4 C 13 4.550781 12.550781 5 12 5 C 11.449219 5 11 4.550781 11 4 C 11 3.449219 11.449219 3 12 3 Z M 12 3 "/>
</g>
</svg>
